<svg xmlns="http://www.w3.org/2000/svg" xmlns:xlink="http://www.w3.org/1999/xlink" version="1.1" x="0px" y="0px" viewBox="0 0 100 125" enable-background="new 0 0 100 100" xml:space="preserve"><path fill="#000000" d="M94.981,46.132c0.545-2.157,0.123-4.354-1.225-5.511C93.907,39.769,94,38.896,94,38  c0-7.649-5.729-13.948-13.129-14.871C79.948,15.73,73.649,10,66,10c-0.572,0-1.134,0.039-1.689,0.101C61.812,5.292,56.795,2,51,2  c-5.794,0-10.812,3.292-13.311,8.101C37.134,10.039,36.572,10,36,10c-7.649,0-13.948,5.73-14.871,13.129C13.73,24.052,8,30.351,8,38  c0,0.896,0.093,1.769,0.243,2.621c-1.981,1.7-3.13,5.644-1.598,8.41L17,93.625C17,98.25,20.239,99,24,99h4.999h7h7H49h8.001h8h8H80  c1,0,5-0.75,5-5.375l10-47.25c0-0.024-0.01-0.047-0.012-0.071L95,46.25C95,46.21,94.984,46.171,94.981,46.132z M74.927,28.176  c0.761-0.8,2.027-0.832,2.828-0.071l7.247,6.891c0.801,0.762,0.832,2.028,0.071,2.829c-0.761,0.799-2.027,0.832-2.828,0.071  l-7.247-6.891C74.197,30.243,74.166,28.977,74.927,28.176z M68.121,30.051c0.781-0.781,2.048-0.781,2.829,0  c0.78,0.78,0.78,2.047,0,2.828l-7.071,7.07c-0.781,0.781-2.048,0.781-2.829,0c-0.78-0.78-0.78-2.047,0-2.828L68.121,30.051z   M63.95,20.05c0.78,0.781,0.78,2.047,0,2.829l-7.071,7.071c-0.781,0.781-2.048,0.781-2.829,0c-0.78-0.781-0.78-2.047,0-2.829  l7.071-7.071C61.902,19.269,63.169,19.269,63.95,20.05z M45.492,9.421c0.407-1.026,1.569-1.529,2.596-1.123l9.296,3.684  c1.027,0.407,1.53,1.569,1.123,2.597c-0.407,1.026-1.569,1.529-2.596,1.123l-9.297-3.684C45.588,11.611,45.085,10.448,45.492,9.421z   M32.834,21.521l7.858-6.185c0.868-0.684,2.126-0.534,2.809,0.334c0.683,0.868,0.532,2.126-0.335,2.809l-7.857,6.185  c-0.868,0.683-2.126,0.533-2.809-0.335C31.817,23.462,31.967,22.205,32.834,21.521z M16.616,34.131l9.191-3.939  c1.016-0.435,2.191,0.035,2.627,1.051c0.435,1.015-0.036,2.191-1.051,2.626l-9.191,3.939c-1.016,0.435-2.191-0.035-2.626-1.051  C15.131,35.743,15.602,34.566,16.616,34.131z M24,95c-1.954,0-2.662-0.433-2.914-0.547C21.053,94.338,21,93.958,21,93.5  c0-0.306-0.035-0.674-0.104-0.972L10.228,46.797c0.774-0.551,2.183-1.191,3.366-1.53l3.577,3.569  c0.333,0.334,0.722,0.584,1.132,0.776L27.38,95H24z M29.42,95l-9.009-45.044c0.47-0.049,0.937-0.156,1.377-0.376l6.62-3.31L34.61,95  H29.42z M36.626,95l-6.282-49.354l7.866,3.933c0.29,0.145,0.592,0.25,0.901,0.319L41.818,95H36.626z M48,95h-4.178l-2.711-45.177  c0.23-0.067,0.46-0.136,0.678-0.245L48,46.472V95z M49.425,41.425c-0.341,0.278-0.748,0.419-1.156,0.441  c-0.616,0.033-1.238-0.213-1.657-0.727l-6.32-7.748c-0.699-0.857-0.57-2.117,0.285-2.815c0.855-0.697,2.115-0.569,2.814,0.286  l6.32,7.75c0.614,0.753,0.588,1.818-0.011,2.54C49.619,41.248,49.528,41.341,49.425,41.425z M56.179,95H50V45.472l8.211,4.105  c0.218,0.109,0.448,0.178,0.678,0.245L56.179,95z M64.269,95h-6.087l2.706-45.103c0.309-0.07,0.612-0.175,0.901-0.32l6.924-3.461  L64.269,95z M72.468,95h-6.19l4.469-49.155l7.465,3.732c0.467,0.233,0.964,0.344,1.463,0.385L72.468,95z M81.087,92.545  C81.029,92.817,81,93.346,81,93.625C81,94.212,81,94,80,95h-5.508l7.269-45.428c0.386-0.19,0.752-0.428,1.067-0.744l3.604-3.604  c1.445,0.355,3.322,1.072,4.331,1.721L81.087,92.545z"/><text x="0" y="115" fill="#000000" font-size="5px" font-weight="bold" font-family="'Helvetica Neue', Helvetica, Arial-Unicode, Arial, Sans-serif">Created by Mario Bieh</text><text x="0" y="120" fill="#000000" font-size="5px" font-weight="bold" font-family="'Helvetica Neue', Helvetica, Arial-Unicode, Arial, Sans-serif">from the Noun Project</text></svg>