<svg xmlns="http://www.w3.org/2000/svg" xmlns:xlink="http://www.w3.org/1999/xlink" version="1.1" x="0px" y="0px" viewBox="0 0 48 60" enable-background="new 0 0 48 48" xml:space="preserve"><g><circle fill="#000000" cx="11.9" cy="38.4" r="4.6"/><circle fill="#000000" cx="37.1" cy="38.4" r="4.6"/><path fill="#000000" d="M18.4,21.4c-0.4,0-0.7-0.1-1-0.4l-3.1-3.1c-0.3-0.3-0.4-0.6-0.4-1v-5.6c0-0.8,0.6-1.4,1.4-1.4   s1.4,0.6,1.4,1.4v5l2.6,2.6c0.5,0.5,0.6,1.4,0.1,1.9C19.2,21.2,18.8,21.4,18.4,21.4z"/><path fill="#000000" d="M47.3,26.7L38,15.5c-0.1-0.1-0.2-0.2-0.4-0.2h-6.1c-0.1,0-0.2-0.1-0.2-0.2V5.4C31.4,5.1,31.2,5,31,5H1   C0.7,5,0.5,5.2,0.5,5.5V38c0,0.2,0.2,0.4,0.4,0.4H4c0.2,0,0.3-0.1,0.3-0.3c0.1-1.6,0.6-3.2,1.7-4.6c1.9-2.3,5.9-3.3,8.7-2.2   c3,1.2,4.7,3.9,4.8,6.8c0,0.2,0.1,0.3,0.3,0.3h9.4c0.2,0,0.3-0.1,0.3-0.3c0.1-2,0.9-4,2.7-5.5c2.3-2,5.7-2.4,8.4-1   c2.6,1.4,4.1,3.9,4.2,6.5c0,0.2,0.1,0.3,0.3,0.3h2.1c0.2,0,0.4-0.2,0.4-0.4V27.2C47.5,27,47.4,26.8,47.3,26.7z M15.3,25.7   c-4.8,0-8.7-3.9-8.7-8.7s3.9-8.7,8.7-8.7S24,12.2,24,17S20.1,25.7,15.3,25.7z M44.2,27.8H31.8c-0.1,0-0.2-0.1-0.2-0.2v-9.4   c0-0.1,0.1-0.2,0.2-0.2h4.8c0.1,0,0.1,0,0.2,0.1l7.6,9.4C44.4,27.6,44.3,27.8,44.2,27.8z"/></g><text x="0" y="63" fill="#000000" font-size="5px" font-weight="bold" font-family="'Helvetica Neue', Helvetica, Arial-Unicode, Arial, Sans-serif">Created by Creative Stall</text><text x="0" y="68" fill="#000000" font-size="5px" font-weight="bold" font-family="'Helvetica Neue', Helvetica, Arial-Unicode, Arial, Sans-serif">from the Noun Project</text></svg>