<svg xmlns:dc="http://purl.org/dc/elements/1.1/" xmlns:cc="http://creativecommons.org/ns#" xmlns:rdf="http://www.w3.org/1999/02/22-rdf-syntax-ns#" xmlns:svg="http://www.w3.org/2000/svg" xmlns="http://www.w3.org/2000/svg" xmlns:sodipodi="http://sodipodi.sourceforge.net/DTD/sodipodi-0.dtd" xmlns:inkscape="http://www.inkscape.org/namespaces/inkscape" viewBox="0 0 32 40" version="1.1" x="0px" y="0px"><g transform="translate(0,-1020.3622)"><path style="color:#000000;font-style:normal;font-variant:normal;font-weight:normal;font-stretch:normal;font-size:medium;line-height:normal;font-family:sans-serif;text-indent:0;text-align:start;text-decoration:none;text-decoration-line:none;text-decoration-style:solid;text-decoration-color:#000000;letter-spacing:normal;word-spacing:normal;text-transform:none;direction:ltr;writing-mode:lr-tb;baseline-shift:baseline;text-anchor:start;white-space:normal;clip-rule:nonzero;display:inline;overflow:visible;visibility:visible;opacity:1;isolation:auto;mix-blend-mode:normal;color-interpolation:sRGB;color-interpolation-filters:linearRGB;solid-color:#000000;solid-opacity:1;fill:#000000;fill-opacity:1;fill-rule:nonzero;stroke:none;stroke-width:0.26458335;stroke-linecap:round;stroke-linejoin:round;stroke-miterlimit:4;stroke-dasharray:none;stroke-dashoffset:0;stroke-opacity:1;color-rendering:auto;image-rendering:auto;shape-rendering:auto;text-rendering:auto;enable-background:accumulate" d="m 15.752513,1028.1223 c -4.688923,0 -8.5046597,3.8056 -8.5046597,8.4892 0,4.6835 3.8157367,8.4949 8.5046597,8.4949 4.688923,0 8.4988,-3.8114 8.4988,-8.4949 0,-4.6836 -3.809877,-8.4892 -8.4988,-8.4892 z m 1.748187,5.4942 0,0 c 0.966587,-8e-4 1.749133,0.7433 1.748226,1.6623 -7.56e-4,0.4761 -0.252873,0.8938 -0.591852,1.2447 -0.983331,1.0245 -2.906526,3.0867 -2.906526,3.0867 0,0 -2.066982,-2.1225 -3.056929,-3.2212 -0.279332,-0.3097 -0.442962,-0.6964 -0.443378,-1.1043 7.56e-4,-0.919 0.783679,-1.6653 1.750153,-1.6663 0.96655,-8e-4 1.751061,0.5795 1.750154,1.4984 7.93e-4,-0.9188 0.783755,-1.5013 1.750152,-1.5023 z"/><path style="color:#000000;font-style:normal;font-variant:normal;font-weight:normal;font-stretch:normal;font-size:medium;line-height:normal;font-family:sans-serif;text-indent:0;text-align:start;text-decoration:none;text-decoration-line:none;text-decoration-style:solid;text-decoration-color:#000000;letter-spacing:normal;word-spacing:normal;text-transform:none;direction:ltr;writing-mode:lr-tb;baseline-shift:baseline;text-anchor:start;white-space:normal;clip-rule:nonzero;display:inline;overflow:visible;visibility:visible;opacity:1;isolation:auto;mix-blend-mode:normal;color-interpolation:sRGB;color-interpolation-filters:linearRGB;solid-color:#000000;solid-opacity:1;fill:#000000;fill-opacity:1;fill-rule:nonzero;stroke:none;stroke-width:1.00000012;stroke-linecap:round;stroke-linejoin:miter;stroke-miterlimit:4;stroke-dasharray:none;stroke-dashoffset:0;stroke-opacity:1;color-rendering:auto;image-rendering:auto;shape-rendering:auto;text-rendering:auto;enable-background:accumulate" d="m 28.503635,1027.8727 c -0.879538,0 -1.655508,0.501 -2.177924,1.2312 -0.522377,0.7302 -0.828204,1.705 -0.828204,2.7666 0,1.0614 0.306017,2.0266 0.828204,2.7569 0.522416,0.7302 1.298386,1.231 2.177924,1.231 0.879499,0 1.647737,-0.5008 2.170124,-1.231 0.522407,-0.7303 0.826244,-1.6955 0.826244,-2.7569 0,-1.0616 -0.304027,-2.0364 -0.826244,-2.7666 -0.522387,-0.7302 -1.290625,-1.2312 -2.170124,-1.2312 z"/><path style="color:#000000;font-style:normal;font-variant:normal;font-weight:normal;font-stretch:normal;font-size:medium;line-height:normal;font-family:sans-serif;text-indent:0;text-align:start;text-decoration:none;text-decoration-line:none;text-decoration-style:solid;text-decoration-color:#000000;letter-spacing:normal;word-spacing:normal;text-transform:none;direction:ltr;writing-mode:lr-tb;baseline-shift:baseline;text-anchor:start;white-space:normal;clip-rule:nonzero;display:inline;overflow:visible;visibility:visible;opacity:1;isolation:auto;mix-blend-mode:normal;color-interpolation:sRGB;color-interpolation-filters:linearRGB;solid-color:#000000;solid-opacity:1;fill:#000000;fill-opacity:1;fill-rule:nonzero;stroke:none;stroke-width:0.26458335;stroke-linecap:round;stroke-linejoin:miter;stroke-miterlimit:4;stroke-dasharray:none;stroke-dashoffset:0;stroke-opacity:1;color-rendering:auto;image-rendering:auto;shape-rendering:auto;text-rendering:auto;enable-background:accumulate" d="m 27.50264,1038.3635 0,0.494 0,5.3119 c 0,0.3749 0.140989,0.6978 0.320532,0.8921 0.179544,0.194 0.400515,0.2945 0.639819,0.2945 l 0.07409,0 c 0.239266,0 0.46549,-0.1005 0.645034,-0.2945 0.179544,-0.1941 0.320532,-0.5173 0.320532,-0.8921 l 0,-5.8059 z"/><path style="color:#000000;font-style:normal;font-variant:normal;font-weight:normal;font-stretch:normal;font-size:medium;line-height:normal;font-family:sans-serif;text-indent:0;text-align:start;text-decoration:none;text-decoration-line:none;text-decoration-style:solid;text-decoration-color:#000000;letter-spacing:normal;word-spacing:normal;text-transform:none;direction:ltr;writing-mode:lr-tb;baseline-shift:baseline;text-anchor:start;white-space:normal;clip-rule:nonzero;display:inline;overflow:visible;visibility:visible;opacity:1;isolation:auto;mix-blend-mode:normal;color-interpolation:sRGB;color-interpolation-filters:linearRGB;solid-color:#000000;solid-opacity:1;fill:#000000;fill-opacity:1;fill-rule:evenodd;stroke:none;stroke-width:0.26458338px;stroke-linecap:butt;stroke-linejoin:miter;stroke-miterlimit:4;stroke-dasharray:none;stroke-dashoffset:0;stroke-opacity:1;color-rendering:auto;image-rendering:auto;shape-rendering:auto;text-rendering:auto;enable-background:accumulate" d="m 28.000637,1034.8713 0,4.4907 1.004046,0 0,-4.4907 z"/><path style="color:#000000;font-style:normal;font-variant:normal;font-weight:normal;font-stretch:normal;font-size:medium;line-height:normal;font-family:sans-serif;text-indent:0;text-align:start;text-decoration:none;text-decoration-line:none;text-decoration-style:solid;text-decoration-color:#000000;letter-spacing:normal;word-spacing:normal;text-transform:none;direction:ltr;writing-mode:lr-tb;baseline-shift:baseline;text-anchor:start;white-space:normal;clip-rule:nonzero;display:inline;overflow:visible;visibility:visible;opacity:1;isolation:auto;mix-blend-mode:normal;color-interpolation:sRGB;color-interpolation-filters:linearRGB;solid-color:#000000;solid-opacity:1;fill:#000000;fill-opacity:1;fill-rule:evenodd;stroke:none;stroke-width:3.7795279px;stroke-linecap:round;stroke-linejoin:miter;stroke-miterlimit:4;stroke-dasharray:none;stroke-dashoffset:0;stroke-opacity:1;color-rendering:auto;image-rendering:auto;shape-rendering:auto;text-rendering:auto;enable-background:accumulate" d="m 2.9954957,1027.8665 a 0.50009477,0.4995219 0 0 0 -0.050805,0 0.50009477,0.4995219 0 0 0 -0.4433996,0.5093 l 0,3.9897 a 0.50009477,0.4995219 0 0 0 0,0.01 l -1.0039897,0 a 0.50009477,0.4995219 0 0 0 0,-0.01 l 0,-3.9898 a 0.50009477,0.4995219 0 0 0 -0.50200479,-0.5112 0.50009477,0.4995219 0 0 0 -0.0508045,0 0.50009477,0.4995219 0 0 0 -0.44339962,0.5092 l 0,3.9898 a 0.50009477,0.4995219 0 0 0 0,0.01 0.50009477,0.4995219 0 0 0 0,0.066 l 0,0.4273 0,1.0692 c 0,0.5829 0.32923942,1.0942 0.78914041,1.4223 0.4598211,0.328 1.0553543,0.5092 1.7052224,0.5092 0.649918,0 1.253222,-0.1812 1.713043,-0.5092 0.4598611,-0.3281 0.7891406,-0.8394 0.7891406,-1.4223 l 0,-1.4926 a 0.50009477,0.4995219 0 0 0 0,-0.078 l 0,-3.9898 a 0.50009477,0.4995219 0 0 0 -0.5527894,-0.5093 0.50009477,0.4995219 0 0 0 -0.4433997,0.5093 l 0,3.9896 a 0.50009477,0.4995219 0 0 0 0,0.01 l -1.0039897,0 a 0.50009477,0.4995219 0 0 0 0,-0.01 l 0,-3.9898 a 0.50009477,0.4995219 0 0 0 -0.5020048,-0.5132 z"/><path style="color:#000000;font-style:normal;font-variant:normal;font-weight:normal;font-stretch:normal;font-size:medium;line-height:normal;font-family:sans-serif;text-indent:0;text-align:start;text-decoration:none;text-decoration-line:none;text-decoration-style:solid;text-decoration-color:#000000;letter-spacing:normal;word-spacing:normal;text-transform:none;direction:ltr;writing-mode:lr-tb;baseline-shift:baseline;text-anchor:start;white-space:normal;clip-rule:nonzero;display:inline;overflow:visible;visibility:visible;opacity:1;isolation:auto;mix-blend-mode:normal;color-interpolation:sRGB;color-interpolation-filters:linearRGB;solid-color:#000000;solid-opacity:1;fill:#000000;fill-opacity:1;fill-rule:evenodd;stroke:none;stroke-width:0.26458338px;stroke-linecap:butt;stroke-linejoin:miter;stroke-miterlimit:4;stroke-dasharray:none;stroke-dashoffset:0;stroke-opacity:1;color-rendering:auto;image-rendering:auto;shape-rendering:auto;text-rendering:auto;enable-background:accumulate" d="m 2.5013252,1034.869 0,4.4981 0.9966371,0 0,-4.4981 z"/><path d="m 1.9996615,1038.3697 0,0.494 0,5.3119 c 0,0.3749 0.140989,0.6979 0.3205325,0.8921 0.1795437,0.194 0.4005146,0.2945 0.6398178,0.2945 l 0.074086,0 c 0.2392655,0 0.4654526,-0.1005 0.6449963,-0.2945 0.1795435,-0.1941 0.3205325,-0.5173 0.3205325,-0.8921 l 0,-5.8059 z" style="color:#000000;font-style:normal;font-variant:normal;font-weight:normal;font-stretch:normal;font-size:medium;line-height:normal;font-family:sans-serif;text-indent:0;text-align:start;text-decoration:none;text-decoration-line:none;text-decoration-style:solid;text-decoration-color:#000000;letter-spacing:normal;word-spacing:normal;text-transform:none;direction:ltr;writing-mode:lr-tb;baseline-shift:baseline;text-anchor:start;white-space:normal;clip-rule:nonzero;display:inline;overflow:visible;visibility:visible;opacity:1;isolation:auto;mix-blend-mode:normal;color-interpolation:sRGB;color-interpolation-filters:linearRGB;solid-color:#000000;solid-opacity:1;fill:#000000;fill-opacity:1;fill-rule:nonzero;stroke:none;stroke-width:0.26458338;stroke-linecap:round;stroke-linejoin:miter;stroke-miterlimit:4;stroke-dasharray:none;stroke-dashoffset:0;stroke-opacity:1;color-rendering:auto;image-rendering:auto;shape-rendering:auto;text-rendering:auto;enable-background:accumulate"/></g><text x="0" y="47" fill="#000000" font-size="5px" font-weight="bold" font-family="'Helvetica Neue', Helvetica, Arial-Unicode, Arial, Sans-serif">Created by anbileru adaleru</text><text x="0" y="52" fill="#000000" font-size="5px" font-weight="bold" font-family="'Helvetica Neue', Helvetica, Arial-Unicode, Arial, Sans-serif">from the Noun Project</text></svg>